<svg id="Logo" xmlns="http://www.w3.org/2000/svg" xmlns:xlink="http://www.w3.org/1999/xlink" viewBox="0 0 1127.54 378.29"><defs><style>.cls-1{fill:url(#linear-gradient);}.cls-2{fill:url(#linear-gradient-3);}.cls-3{fill:url(#linear-gradient-4);}.cls-4{fill:url(#linear-gradient-5);}.cls-5{fill:url(#linear-gradient-6);}.cls-6{fill:url(#linear-gradient-7);}.cls-7{fill:url(#linear-gradient-8);}.cls-8{fill:url(#linear-gradient-9);}.cls-9{fill:url(#linear-gradient-10);}.cls-10{fill:url(#linear-gradient-11);}.cls-11{fill:url(#linear-gradient-12);}.cls-12{fill:url(#linear-gradient-13);}.cls-13{fill:url(#linear-gradient-14);}.cls-14{fill:url(#linear-gradient-15);}.cls-15{fill:url(#linear-gradient-18);}</style><linearGradient id="linear-gradient" x1="668.74" y1="1052.83" x2="668.74" y2="500.7" gradientUnits="userSpaceOnUse"><stop offset="0" stop-color="#014670"/><stop offset="1" stop-color="#42c6ea"/></linearGradient><linearGradient id="linear-gradient-3" x1="802.97" y1="1052.83" x2="802.97" y2="500.7" xlink:href="#linear-gradient"/><linearGradient id="linear-gradient-4" x1="915.93" y1="1052.83" x2="915.93" y2="500.7" xlink:href="#linear-gradient"/><linearGradient id="linear-gradient-5" x1="1012.67" y1="1052.83" x2="1012.67" y2="500.7" xlink:href="#linear-gradient"/><linearGradient id="linear-gradient-6" x1="1129.59" y1="1052.83" x2="1129.59" y2="500.7" xlink:href="#linear-gradient"/><linearGradient id="linear-gradient-7" x1="1232.48" y1="1052.83" x2="1232.48" y2="500.7" xlink:href="#linear-gradient"/><linearGradient id="linear-gradient-8" x1="1350.02" y1="1052.83" x2="1350.02" y2="500.7" xlink:href="#linear-gradient"/><linearGradient id="linear-gradient-9" x1="1469.76" y1="1052.83" x2="1469.76" y2="500.7" xlink:href="#linear-gradient"/><linearGradient id="linear-gradient-10" x1="1575.45" y1="1052.83" x2="1575.45" y2="500.7" xlink:href="#linear-gradient"/><linearGradient id="linear-gradient-11" x1="1641.32" y1="1052.83" x2="1641.32" y2="500.7" xlink:href="#linear-gradient"/><linearGradient id="linear-gradient-12" x1="1664.44" y1="1052.83" x2="1664.44" y2="500.7" xlink:href="#linear-gradient"/><linearGradient id="linear-gradient-13" x1="1709.25" y1="1052.83" x2="1709.25" y2="500.7" xlink:href="#linear-gradient"/><linearGradient id="linear-gradient-14" x1="1127.15" y1="1052.83" x2="1127.15" y2="500.7" xlink:href="#linear-gradient"/><linearGradient id="linear-gradient-15" x1="1235.93" y1="1052.83" x2="1235.93" y2="500.7" xlink:href="#linear-gradient"/><linearGradient id="linear-gradient-18" x1="1579.31" y1="1052.83" x2="1579.31" y2="500.7" xlink:href="#linear-gradient"/></defs><title>Departure.io Logo_Gradient RGB</title><path class="cls-1" d="M662.93,560.85H605.45v94.28a10.72,10.72,0,0,0,10.73,10.72H644V597.59h19.49c19.18,0,29.55,11.63,29.55,34.26v34h28.25A10.72,10.72,0,0,0,732,655.13V631.84C732,586.92,706.59,560.85,662.93,560.85Z" transform="translate(-605.45 -560.85)"/><path class="cls-1" d="M721.31,675.85H693.06v32.7c0,23.27-10.37,35.52-29.55,35.52H644V675.85H616.18a10.73,10.73,0,0,0-10.73,10.73v94.14h58.11c43,0,68.47-26.69,68.47-71.93V686.58A10.73,10.73,0,0,0,721.31,675.85Z" transform="translate(-605.45 -560.85)"/><path class="cls-2" d="M840.4,719.39v24H765.54V598.62h72.79v24H791v35.78H834.4v23.16H791v37.84Z" transform="translate(-605.45 -560.85)"/><path class="cls-3" d="M959.15,646.81c0,30.4-17.17,48-46.32,48H898.14v48.6H872.71V598.62h40.12C942,598.62,959.15,616.41,959.15,646.81Zm-26.06,0c0-15.93-6.82-24-20.47-24H898.14v48h14.48C926.27,670.79,933.09,662.73,933.09,646.81Z" transform="translate(-605.45 -560.85)"/><path class="cls-4" d="M1029.63,717.12H995.72l-5.79,26.26H963.46L999,598.62h27.3l35.57,144.76h-26.47Zm-5.17-24.2L1018.67,666c-2.07-9.93-4.34-25.85-5.79-35.57h-.62c-1.24,9.72-3.52,25.64-5.58,35.57l-5.79,26.88Z" transform="translate(-605.45 -560.85)"/><path class="cls-5" d="M1121.22,692.92h-11.59v50.46H1084.2V598.62h39.7c28.33,0,44.67,17.17,44.67,46.74,0,21.09-8.06,36-22.75,43l29.16,55h-27.92Zm-11.59-24.19h14.07c12.2,0,18.82-8.07,18.82-23.16,0-14.89-6.62-22.75-18.82-22.75h-14.07Z" transform="translate(-605.45 -560.85)"/><path class="cls-6" d="M1274.66,622.82h-29.15V743.38h-26.06V622.82h-29.16v-24.2h84.37Z" transform="translate(-605.45 -560.85)"/><path class="cls-7" d="M1306,697.16V597.49h25.85v99.67c0,15.1,6.62,22.75,18.2,22.75s18.2-7.65,18.2-22.75V597.49h25.84v99.67c0,30-16.74,47.36-44,47.36S1306,727.15,1306,697.16Z" transform="translate(-605.45 -560.85)"/><path class="cls-8" d="M1461.39,692.92h-11.58v50.46h-25.44V598.62h39.71c28.33,0,44.66,17.17,44.66,46.74,0,21.09-8.06,36-22.74,43l29.15,55h-27.91Zm-11.58-24.19h14.06c12.2,0,18.82-8.07,18.82-23.16,0-14.89-6.62-22.75-18.82-22.75h-14.06Z" transform="translate(-605.45 -560.85)"/><path class="cls-9" d="M1613.2,719.59v24.19h-75.5v-146h73.42V622h-47.77v36.08h43.8v23.36h-43.8v38.17Z" transform="translate(-605.45 -560.85)"/><path class="cls-10" d="M1636,931.71a5.37,5.37,0,1,1,5.29,5.44A5.07,5.07,0,0,1,1636,931.71Z" transform="translate(-605.45 -560.85)"/><path class="cls-11" d="M1658.93,841.36a5.51,5.51,0,1,1,5.43,5.57C1661.08,846.93,1658.93,844.79,1658.93,841.36Zm2.43,19.73h6.15v74.77h-6.15Z" transform="translate(-605.45 -560.85)"/><path class="cls-12" d="M1685.52,911.84V885.1c0-16.15,9.15-25.59,23.73-25.59S1733,869,1733,885.1v26.74c0,16.16-9.3,25.59-23.74,25.59S1685.52,928,1685.52,911.84Zm41.18,0V885.1c0-12.72-6.58-19.58-17.45-19.58s-17.58,6.86-17.58,19.58v26.74c0,12.72,6.72,19.59,17.58,19.59S1726.7,924.56,1726.7,911.84Z" transform="translate(-605.45 -560.85)"/><path class="cls-13" d="M1170.1,894.23c0,25.87-17.18,42.43-42.22,42.43H1084.2V791.76h42.44c22.76,0,38.29,15.94,38.29,40.37,0,12.42-5,23.8-13.25,30.22C1163.27,868.15,1170.1,880.15,1170.1,894.23Zm-60.44-78.46v35.61h13.87c10.35,0,15.52-6.42,15.52-18.22,0-11.59-5.17-17.39-16.35-17.39ZM1144,894.23c0-12.63-7.45-19.05-20.28-19.05h-14.08v37.47h14.28C1137.19,912.65,1144,906.44,1144,894.23Z" transform="translate(-605.45 -560.85)"/><path class="cls-14" d="M1190.29,890.09V838.34c0-30.64,17-49.06,45.75-49.06,28.56,0,45.54,18.42,45.54,49.06v51.75c0,30.63-17,49.06-45.54,49.06C1207.26,939.15,1190.29,920.72,1190.29,890.09Zm65,0V838.34c0-15.74-6.42-24.43-19.25-24.43s-19.46,8.69-19.46,24.43v51.75c0,15.73,6.62,24.42,19.46,24.42S1255.29,905.82,1255.29,890.09Z" transform="translate(-605.45 -560.85)"/><path class="cls-7" d="M1367,910.37h-34l-5.79,26.29h-26.5l35.61-144.9h27.32l35.6,144.9h-26.49Zm-5.17-24.22-5.8-26.91c-2.07-9.93-4.35-25.87-5.8-35.6h-.62c-1.24,9.73-3.52,25.67-5.59,35.6l-5.79,26.91Z" transform="translate(-605.45 -560.85)"/><path class="cls-8" d="M1461.38,886.15h-11.59v50.51h-25.46V791.76h39.74c28.36,0,44.71,17.18,44.71,46.78,0,21.12-8.07,36-22.77,43.06l29.19,55.06h-28Zm-11.59-24.21h14.07c12.22,0,18.84-8.08,18.84-23.19,0-14.9-6.62-22.77-18.84-22.77h-14.07Z" transform="translate(-605.45 -560.85)"/><path class="cls-15" d="M1575.47,791.82h-37.9v145h38.32c28.37,0,45.15-17.61,45.15-47.43V838.62C1621,809,1604.26,791.82,1575.47,791.82Zm19.89,97.34c0,15.33-6.84,23.4-19.47,23.4h-12.84V816.05h12.84c12.63,0,19.47,7.66,19.47,22.57Z" transform="translate(-605.45 -560.85)"/></svg>